<svg width="435" height="400" viewBox="0 0 435 400" fill="none" xmlns="http://www.w3.org/2000/svg">
<g clip-path="url(#clip0_13_871)">
<path d="M433.75 231.67C433.75 211.4 424.11 193.38 409.16 181.94C413.17 173.68 415.43 164.41 415.43 154.62C415.43 134.65 406.07 116.87 391.5 105.41C396.44 96.46 399.25 86.1699 399.25 75.2199C399.25 40.6399 371.22 12.61 336.64 12.61C321.46 12.61 307.55 18.01 296.71 27C296 26.7 295.29 26.41 294.57 26.12C283.11 11.42 265.25 1.94995 245.17 1.94995C231.74 1.94995 219.31 6.18995 209.11 13.39C208.14 13.48 207.17 13.57 206.2 13.68C195.93 6.30995 183.35 1.94995 169.74 1.94995C140.79 1.94995 116.45 21.6 109.28 48.29C82.9302 55.68 63.6002 79.85 63.6002 108.56C29.0202 108.56 0.990234 136.59 0.990234 171.17C0.990234 190.94 10.1602 208.56 24.4802 220.03C23.4902 224.45 22.9502 229.05 22.9502 233.77C22.9502 261.54 41.0402 285.08 66.0702 293.27C64.4702 298.8 63.6002 304.63 63.6002 310.67C63.6002 345.25 91.6302 373.28 126.21 373.28C133.43 373.28 140.36 372.04 146.81 369.79C157.92 379.85 172.65 385.98 188.82 385.98C197.03 385.98 204.87 384.38 212.05 381.51C223.29 392.28 238.53 398.91 255.33 398.91C281.26 398.91 303.51 383.14 313.02 360.67C313.36 360.67 313.69 360.7 314.03 360.7C346.5 360.7 373.2 335.98 376.33 304.33C382.09 300.69 387.22 296.14 391.51 290.88C416.08 282.42 433.74 259.12 433.74 231.68L433.75 231.67Z" fill="white" stroke="black" stroke-width="2" stroke-miterlimit="10"/>
<path d="M228.15 153.05C229.757 153.05 231.06 151.747 231.06 150.14C231.06 148.533 229.757 147.23 228.15 147.23C226.543 147.23 225.24 148.533 225.24 150.14C225.24 151.747 226.543 153.05 228.15 153.05Z" stroke="black" stroke-width="1.5" stroke-miterlimit="10"/>
<path d="M214.6 141.88C221.89 141.88 227.8 135.048 227.8 126.62C227.8 118.192 221.89 111.36 214.6 111.36C207.31 111.36 201.4 118.192 201.4 126.62C201.4 135.048 207.31 141.88 214.6 141.88Z" fill="black"/>
<path d="M214.6 141.88C221.89 141.88 227.8 135.048 227.8 126.62C227.8 118.192 221.89 111.36 214.6 111.36C207.31 111.36 201.4 118.192 201.4 126.62C201.4 135.048 207.31 141.88 214.6 141.88Z" stroke="black" stroke-width="1.5" stroke-miterlimit="10"/>
<path d="M241.69 141.88C248.98 141.88 254.89 135.048 254.89 126.62C254.89 118.192 248.98 111.36 241.69 111.36C234.4 111.36 228.49 118.192 228.49 126.62C228.49 135.048 234.4 141.88 241.69 141.88Z" fill="black"/>
<path d="M241.69 141.88C248.98 141.88 254.89 135.048 254.89 126.62C254.89 118.192 248.98 111.36 241.69 111.36C234.4 111.36 228.49 118.192 228.49 126.62C228.49 135.048 234.4 141.88 241.69 141.88Z" stroke="black" stroke-width="1.5" stroke-miterlimit="10"/>
<path d="M225.45 60.1199C213.35 52.0899 202.14 54.3499 194.11 66.4499" stroke="black" stroke-width="2" stroke-miterlimit="10"/>
<path d="M100.01 267.46C99.4001 281.97 107.14 290.39 121.65 291.01" stroke="black" stroke-width="2" stroke-miterlimit="10"/>
<path d="M370.26 196.12C379.76 185.14 378.94 173.73 367.96 164.23" stroke="black" stroke-width="2" stroke-miterlimit="10"/>
<path d="M116.78 152.09C102.93 156.46 97.6601 166.62 102.03 180.46" stroke="black" stroke-width="2" stroke-miterlimit="10"/>
<path d="M116.59 136.43C106.77 139.53 103.02 146.74 106.12 156.56" stroke="black" stroke-width="2" stroke-miterlimit="10"/>
<path d="M128.85 73.1599C121.71 71.8399 117 75.0699 115.68 82.2099" stroke="black" stroke-width="2" stroke-miterlimit="10"/>
<path d="M55.67 170.71C45.67 173.23 41.5 180.21 44.02 190.21" stroke="black" stroke-width="2" stroke-miterlimit="10"/>
<path d="M364.3 72.46C364.58 65.21 360.69 61.01 353.44 60.73" stroke="black" stroke-width="2" stroke-miterlimit="10"/>
<path d="M350.46 131.96C354.21 120.65 350 112.26 338.69 108.51" stroke="black" stroke-width="2" stroke-miterlimit="10"/>
<path d="M361.73 170.64C366.4 165.09 365.91 159.39 360.36 154.72" stroke="black" stroke-width="2" stroke-miterlimit="10"/>
<path d="M219.12 277.97C230.1 287.47 241.51 286.65 251.01 275.67" stroke="black" stroke-width="2" stroke-miterlimit="10"/>
<path d="M295.56 321.62C306.87 325.37 315.26 321.16 319.01 309.85" stroke="black" stroke-width="2" stroke-miterlimit="10"/>
<path d="M154.61 334.26C158.23 345.61 166.57 349.92 177.93 346.3" stroke="black" stroke-width="2" stroke-miterlimit="10"/>
<path d="M244.6 269.44C250.15 274.11 255.85 273.62 260.52 268.07" stroke="black" stroke-width="2" stroke-miterlimit="10"/>
<path d="M371.19 271.52C378.45 271.52 382.49 267.48 382.49 260.22" stroke="black" stroke-width="2" stroke-miterlimit="10"/>
<line x1="241.5" y1="147" x2="241.5" y2="142" stroke="black"/>
<line x1="247.067" y1="145.58" x2="244.567" y2="141.25" stroke="black"/>
<line y1="-0.5" x2="5" y2="-0.5" transform="matrix(0.5 -0.866025 -0.866025 -0.5 235 145.33)" stroke="black"/>
<line x1="213.5" y1="147" x2="213.5" y2="142" stroke="black"/>
<line x1="219.067" y1="145.58" x2="216.567" y2="141.25" stroke="black"/>
<line y1="-0.5" x2="5" y2="-0.5" transform="matrix(0.5 -0.866025 -0.866025 -0.5 207 145.33)" stroke="black"/>
</g>
<defs>
<clipPath id="clip0_13_871">
<rect width="434.75" height="398.95" fill="white" transform="translate(0 0.949951)"/>
</clipPath>
</defs>
</svg>
