<svg width="435" height="400" viewBox="0 0 435 400" fill="none" xmlns="http://www.w3.org/2000/svg">
<path d="M433.76 231.68C433.76 211.41 424.12 193.39 409.17 181.95C413.18 173.69 415.44 164.42 415.44 154.63C415.44 134.66 406.08 116.88 391.51 105.42C396.45 96.47 399.26 86.18 399.26 75.23C399.26 40.65 371.23 12.62 336.65 12.62C321.47 12.62 307.56 18.02 296.72 27.01C296.01 26.71 295.3 26.42 294.58 26.13C283.12 11.43 265.26 1.95996 245.18 1.95996C231.75 1.95996 219.32 6.19996 209.12 13.4C208.15 13.49 207.18 13.58 206.21 13.69C195.94 6.31996 183.36 1.95996 169.75 1.95996C140.8 1.95996 116.46 21.61 109.29 48.3C82.94 55.69 63.61 79.86 63.61 108.57C29.03 108.57 1 136.6 1 171.18C1 190.95 10.17 208.57 24.49 220.04C23.5 224.46 22.96 229.06 22.96 233.78C22.96 261.55 41.05 285.09 66.08 293.28C64.48 298.81 63.61 304.64 63.61 310.68C63.61 345.26 91.64 373.29 126.22 373.29C133.44 373.29 140.37 372.05 146.82 369.8C157.93 379.86 172.66 385.99 188.83 385.99C197.04 385.99 204.88 384.39 212.06 381.52C223.3 392.29 238.54 398.92 255.34 398.92C281.27 398.92 303.52 383.15 313.03 360.68C313.37 360.68 313.7 360.71 314.04 360.71C346.51 360.71 373.21 335.99 376.34 304.34C382.1 300.7 387.23 296.15 391.52 290.89C416.09 282.43 433.75 259.13 433.75 231.69L433.76 231.68Z" fill="white" stroke="black" stroke-width="2" stroke-miterlimit="10"/>
<g clip-path="url(#clip0_13_2241)">
<path d="M234.63 145.71C234.63 149.31 231.71 152.23 228.11 152.23C224.51 152.23 221.59 149.31 221.59 145.71" stroke="black" stroke-width="1.5" stroke-miterlimit="10"/>
<path d="M214.56 139.25C221.85 139.25 227.76 132.418 227.76 123.99C227.76 115.562 221.85 108.73 214.56 108.73C207.27 108.73 201.36 115.562 201.36 123.99C201.36 132.418 207.27 139.25 214.56 139.25Z" fill="#F9F6FA" stroke="url(#paint0_linear_13_2241)" stroke-width="0.8" stroke-miterlimit="10"/>
<mask id="mask0_13_2241" style="mask-type:luminance" maskUnits="userSpaceOnUse" x="201" y="108" width="27" height="32">
<path d="M214.56 139.25C221.85 139.25 227.76 132.418 227.76 123.99C227.76 115.562 221.85 108.73 214.56 108.73C207.27 108.73 201.36 115.562 201.36 123.99C201.36 132.418 207.27 139.25 214.56 139.25Z" fill="white"/>
</mask>
<g mask="url(#mask0_13_2241)">
<path d="M221.81 109.93C217.06 107.3 211.58 107.3 207.31 109.93C203.4 112.33 199.01 114.22 199.01 119.52C199.01 124.82 202.73 129.12 207.31 129.12C210.43 129.12 213.14 127.13 214.56 124.19C215.98 127.13 218.69 129.12 221.81 129.12C226.39 129.12 230.11 124.82 230.11 119.52C230.11 114.22 225.82 112.14 221.81 109.93Z" fill="black"/>
</g>
<path d="M214.56 139.25C221.85 139.25 227.76 132.418 227.76 123.99C227.76 115.562 221.85 108.73 214.56 108.73C207.27 108.73 201.36 115.562 201.36 123.99C201.36 132.418 207.27 139.25 214.56 139.25Z" stroke="black" stroke-width="1.5" stroke-miterlimit="10"/>
<path d="M215.78 117.39C212.78 117.937 212.326 118.39 211.78 121.39C211.233 118.39 210.78 117.937 207.78 117.39C210.78 116.843 211.233 116.39 211.78 113.39C212.326 116.39 212.78 116.843 215.78 117.39Z" fill="white"/>
<path d="M224.63 121.15C221.63 121.697 221.177 122.15 220.63 125.15C220.083 122.15 219.63 121.697 216.63 121.15C219.63 120.603 220.083 120.15 220.63 117.15C221.177 120.15 221.63 120.603 224.63 121.15Z" fill="white"/>
<path d="M241.65 139.25C248.94 139.25 254.85 132.418 254.85 123.99C254.85 115.562 248.94 108.73 241.65 108.73C234.36 108.73 228.45 115.562 228.45 123.99C228.45 132.418 234.36 139.25 241.65 139.25Z" fill="#F9F6FA" stroke="url(#paint1_linear_13_2241)" stroke-width="0.8" stroke-miterlimit="10"/>
<mask id="mask1_13_2241" style="mask-type:luminance" maskUnits="userSpaceOnUse" x="228" y="108" width="27" height="32">
<path d="M241.65 139.25C248.94 139.25 254.85 132.418 254.85 123.99C254.85 115.562 248.94 108.73 241.65 108.73C234.36 108.73 228.45 115.562 228.45 123.99C228.45 132.418 234.36 139.25 241.65 139.25Z" fill="white"/>
</mask>
<g mask="url(#mask1_13_2241)">
<path d="M248.9 109.93C244.15 107.31 238.67 107.31 234.4 109.93C230.49 112.33 226.1 114.23 226.1 119.53C226.1 124.83 229.82 129.13 234.4 129.13C237.52 129.13 240.23 127.14 241.65 124.2C243.07 127.14 245.78 129.13 248.9 129.13C253.48 129.13 257.2 124.83 257.2 119.53C257.2 114.23 252.91 112.15 248.9 109.93Z" fill="black"/>
</g>
<path d="M241.65 139.25C248.94 139.25 254.85 132.418 254.85 123.99C254.85 115.562 248.94 108.73 241.65 108.73C234.36 108.73 228.45 115.562 228.45 123.99C228.45 132.418 234.36 139.25 241.65 139.25Z" stroke="black" stroke-width="1.5" stroke-miterlimit="10"/>
<path d="M242.87 117.39C239.87 117.937 239.416 118.39 238.87 121.39C238.323 118.39 237.87 117.937 234.87 117.39C237.87 116.843 238.323 116.39 238.87 113.39C239.416 116.39 239.87 116.843 242.87 117.39Z" fill="white"/>
<path d="M251.72 121.15C248.72 121.697 248.266 122.15 247.72 125.15C247.173 122.15 246.72 121.697 243.72 121.15C246.72 120.603 247.173 120.15 247.72 117.15C248.266 120.15 248.72 120.603 251.72 121.15Z" fill="white"/>
<ellipse cx="212.01" cy="145.96" rx="6" ry="3" fill="#F9CBFA"/>
<ellipse cx="244.01" cy="145.96" rx="6" ry="3" fill="#F9CBFA"/>
</g>
<path d="M225.46 60.1299C213.36 52.0999 202.15 54.3599 194.12 66.4599" stroke="black" stroke-width="2" stroke-miterlimit="10"/>
<path d="M100.02 267.47C99.4103 281.98 107.15 290.4 121.66 291.02" stroke="black" stroke-width="2" stroke-miterlimit="10"/>
<path d="M370.27 196.13C379.77 185.15 378.95 173.74 367.97 164.24" stroke="black" stroke-width="2" stroke-miterlimit="10"/>
<path d="M116.79 152.1C102.94 156.47 97.6703 166.63 102.04 180.47" stroke="black" stroke-width="2" stroke-miterlimit="10"/>
<path d="M116.6 136.44C106.78 139.54 103.03 146.75 106.13 156.57" stroke="black" stroke-width="2" stroke-miterlimit="10"/>
<path d="M128.86 73.1699C121.72 71.8499 117.01 75.0799 115.69 82.2199" stroke="black" stroke-width="2" stroke-miterlimit="10"/>
<path d="M55.6803 170.72C45.6803 173.24 41.5103 180.22 44.0303 190.22" stroke="black" stroke-width="2" stroke-miterlimit="10"/>
<path d="M364.31 72.47C364.59 65.22 360.7 61.02 353.45 60.74" stroke="black" stroke-width="2" stroke-miterlimit="10"/>
<path d="M350.47 131.97C354.22 120.66 350.01 112.27 338.7 108.52" stroke="black" stroke-width="2" stroke-miterlimit="10"/>
<path d="M361.74 170.65C366.41 165.1 365.92 159.4 360.37 154.73" stroke="black" stroke-width="2" stroke-miterlimit="10"/>
<path d="M219.13 277.98C230.11 287.48 241.52 286.66 251.02 275.68" stroke="black" stroke-width="2" stroke-miterlimit="10"/>
<path d="M295.57 321.63C306.88 325.38 315.27 321.17 319.02 309.86" stroke="black" stroke-width="2" stroke-miterlimit="10"/>
<path d="M154.62 334.27C158.24 345.62 166.58 349.93 177.94 346.31" stroke="black" stroke-width="2" stroke-miterlimit="10"/>
<path d="M244.61 269.45C250.16 274.12 255.86 273.63 260.53 268.08" stroke="black" stroke-width="2" stroke-miterlimit="10"/>
<path d="M371.2 271.53C378.46 271.53 382.5 267.49 382.5 260.23" stroke="black" stroke-width="2" stroke-miterlimit="10"/>
<defs>
<linearGradient id="paint0_linear_13_2241" x1="200.96" y1="123.99" x2="228.16" y2="123.99" gradientUnits="userSpaceOnUse">
<stop stop-color="white"/>
<stop offset="1"/>
</linearGradient>
<linearGradient id="paint1_linear_13_2241" x1="228.05" y1="107.96" x2="255.25" y2="107.96" gradientUnits="userSpaceOnUse">
<stop stop-color="white"/>
<stop offset="1"/>
</linearGradient>
<clipPath id="clip0_13_2241">
<rect width="58.19" height="45.02" fill="white" transform="translate(199.01 107.96)"/>
</clipPath>
</defs>
</svg>
