<svg width="435" height="399" viewBox="0 0 435 399" fill="none" xmlns="http://www.w3.org/2000/svg">
<g clip-path="url(#clip0_13_869)">
<path d="M433.75 230.72C433.75 210.45 424.11 192.43 409.16 180.99C413.17 172.73 415.43 163.46 415.43 153.67C415.43 133.7 406.07 115.92 391.5 104.46C396.44 95.51 399.25 85.22 399.25 74.27C399.25 39.69 371.22 11.66 336.64 11.66C321.46 11.66 307.55 17.06 296.71 26.05C296 25.75 295.29 25.46 294.57 25.17C283.11 10.47 265.25 1 245.17 1C231.74 1 219.31 5.24 209.11 12.44C208.14 12.53 207.17 12.62 206.2 12.73C195.93 5.36 183.35 1 169.74 1C140.79 1 116.45 20.65 109.28 47.34C82.9302 54.73 63.6002 78.9 63.6002 107.61C29.0202 107.61 0.990234 135.64 0.990234 170.22C0.990234 189.99 10.1602 207.61 24.4802 219.08C23.4902 223.5 22.9502 228.1 22.9502 232.82C22.9502 260.59 41.0402 284.13 66.0702 292.32C64.4702 297.85 63.6002 303.68 63.6002 309.72C63.6002 344.3 91.6302 372.33 126.21 372.33C133.43 372.33 140.36 371.09 146.81 368.84C157.92 378.9 172.65 385.03 188.82 385.03C197.03 385.03 204.87 383.43 212.05 380.56C223.29 391.33 238.53 397.96 255.33 397.96C281.26 397.96 303.51 382.19 313.02 359.72C313.36 359.72 313.69 359.75 314.03 359.75C346.5 359.75 373.2 335.03 376.33 303.38C382.09 299.74 387.22 295.19 391.51 289.93C416.08 281.47 433.74 258.17 433.74 230.73L433.75 230.72Z" fill="white" stroke="black" stroke-width="2" stroke-miterlimit="10"/>
<path d="M228.15 152.1C229.757 152.1 231.06 150.797 231.06 149.19C231.06 147.583 229.757 146.28 228.15 146.28C226.543 146.28 225.24 147.583 225.24 149.19C225.24 150.797 226.543 152.1 228.15 152.1Z" stroke="black" stroke-width="1.5" stroke-miterlimit="10"/>
<path d="M214.6 140.93C221.89 140.93 227.8 134.098 227.8 125.67C227.8 117.242 221.89 110.41 214.6 110.41C207.31 110.41 201.4 117.242 201.4 125.67C201.4 134.098 207.31 140.93 214.6 140.93Z" fill="white"/>
<mask id="mask0_13_869" style="mask-type:luminance" maskUnits="userSpaceOnUse" x="201" y="110" width="27" height="31">
<path d="M214.6 140.93C221.89 140.93 227.8 134.098 227.8 125.67C227.8 117.242 221.89 110.41 214.6 110.41C207.31 110.41 201.4 117.242 201.4 125.67C201.4 134.098 207.31 140.93 214.6 140.93Z" fill="white"/>
</mask>
<g mask="url(#mask0_13_869)">
<path d="M221.85 111.6C217.1 108.98 211.62 108.98 207.35 111.6C203.44 114 199.05 115.9 199.05 121.2C199.05 126.5 202.77 130.8 207.35 130.8C210.47 130.8 213.18 128.81 214.6 125.87C216.02 128.81 218.73 130.8 221.85 130.8C226.43 130.8 230.15 126.5 230.15 121.2C230.15 115.9 225.86 113.82 221.85 111.6Z" fill="black"/>
</g>
<path d="M214.6 140.93C221.89 140.93 227.8 134.098 227.8 125.67C227.8 117.242 221.89 110.41 214.6 110.41C207.31 110.41 201.4 117.242 201.4 125.67C201.4 134.098 207.31 140.93 214.6 140.93Z" stroke="black" stroke-width="1.5" stroke-miterlimit="10"/>
<path d="M210.82 119.95C211.858 119.95 212.7 119.108 212.7 118.07C212.7 117.032 211.858 116.19 210.82 116.19C209.782 116.19 208.94 117.032 208.94 118.07C208.94 119.108 209.782 119.95 210.82 119.95Z" fill="white"/>
<path d="M219.67 123.7C220.708 123.7 221.55 122.858 221.55 121.82C221.55 120.782 220.708 119.94 219.67 119.94C218.632 119.94 217.79 120.782 217.79 121.82C217.79 122.858 218.632 123.7 219.67 123.7Z" fill="white"/>
<path d="M241.69 140.93C248.98 140.93 254.89 134.098 254.89 125.67C254.89 117.242 248.98 110.41 241.69 110.41C234.4 110.41 228.49 117.242 228.49 125.67C228.49 134.098 234.4 140.93 241.69 140.93Z" fill="white"/>
<mask id="mask1_13_869" style="mask-type:luminance" maskUnits="userSpaceOnUse" x="228" y="110" width="27" height="31">
<path d="M241.69 140.93C248.98 140.93 254.89 134.098 254.89 125.67C254.89 117.242 248.98 110.41 241.69 110.41C234.4 110.41 228.49 117.242 228.49 125.67C228.49 134.098 234.4 140.93 241.69 140.93Z" fill="white"/>
</mask>
<g mask="url(#mask1_13_869)">
<path d="M248.94 111.6C244.19 108.98 238.71 108.98 234.44 111.6C230.53 114 226.14 115.9 226.14 121.2C226.14 126.5 229.86 130.8 234.44 130.8C237.56 130.8 240.27 128.81 241.69 125.87C243.11 128.81 245.82 130.8 248.94 130.8C253.52 130.8 257.24 126.5 257.24 121.2C257.24 115.9 252.95 113.82 248.94 111.6Z" fill="black"/>
</g>
<path d="M241.69 140.93C248.98 140.93 254.89 134.098 254.89 125.67C254.89 117.242 248.98 110.41 241.69 110.41C234.4 110.41 228.49 117.242 228.49 125.67C228.49 134.098 234.4 140.93 241.69 140.93Z" stroke="black" stroke-width="1.5" stroke-miterlimit="10"/>
<path d="M237.91 119.95C238.948 119.95 239.79 119.108 239.79 118.07C239.79 117.032 238.948 116.19 237.91 116.19C236.871 116.19 236.03 117.032 236.03 118.07C236.03 119.108 236.871 119.95 237.91 119.95Z" fill="white"/>
<path d="M246.76 123.7C247.798 123.7 248.64 122.858 248.64 121.82C248.64 120.782 247.798 119.94 246.76 119.94C245.722 119.94 244.88 120.782 244.88 121.82C244.88 122.858 245.722 123.7 246.76 123.7Z" fill="white"/>
<path d="M225.45 59.17C213.35 51.14 202.14 53.4 194.11 65.5" stroke="black" stroke-width="2" stroke-miterlimit="10"/>
<path d="M100.01 266.51C99.4001 281.02 107.14 289.44 121.65 290.06" stroke="black" stroke-width="2" stroke-miterlimit="10"/>
<path d="M370.26 195.17C379.76 184.19 378.94 172.78 367.96 163.28" stroke="black" stroke-width="2" stroke-miterlimit="10"/>
<path d="M116.78 151.14C102.93 155.51 97.6601 165.67 102.03 179.51" stroke="black" stroke-width="2" stroke-miterlimit="10"/>
<path d="M116.59 135.48C106.77 138.58 103.02 145.79 106.12 155.61" stroke="black" stroke-width="2" stroke-miterlimit="10"/>
<path d="M128.85 72.21C121.71 70.89 117 74.12 115.68 81.26" stroke="black" stroke-width="2" stroke-miterlimit="10"/>
<path d="M55.67 169.76C45.67 172.28 41.5 179.26 44.02 189.26" stroke="black" stroke-width="2" stroke-miterlimit="10"/>
<path d="M364.3 71.51C364.58 64.26 360.69 60.06 353.44 59.78" stroke="black" stroke-width="2" stroke-miterlimit="10"/>
<path d="M350.46 131.01C354.21 119.7 350 111.31 338.69 107.56" stroke="black" stroke-width="2" stroke-miterlimit="10"/>
<path d="M361.73 169.69C366.4 164.14 365.91 158.44 360.36 153.77" stroke="black" stroke-width="2" stroke-miterlimit="10"/>
<path d="M219.12 277.02C230.1 286.52 241.51 285.7 251.01 274.72" stroke="black" stroke-width="2" stroke-miterlimit="10"/>
<path d="M295.56 320.67C306.87 324.42 315.26 320.21 319.01 308.9" stroke="black" stroke-width="2" stroke-miterlimit="10"/>
<path d="M154.61 333.31C158.23 344.66 166.57 348.97 177.93 345.35" stroke="black" stroke-width="2" stroke-miterlimit="10"/>
<path d="M244.6 268.49C250.15 273.16 255.85 272.67 260.52 267.12" stroke="black" stroke-width="2" stroke-miterlimit="10"/>
<path d="M371.19 270.57C378.45 270.57 382.49 266.53 382.49 259.27" stroke="black" stroke-width="2" stroke-miterlimit="10"/>
</g>
<defs>
<clipPath id="clip0_13_869">
<rect width="434.75" height="398.95" fill="white"/>
</clipPath>
</defs>
</svg>
