<svg width="196" height="70" viewBox="0 0 196 70" fill="none" xmlns="http://www.w3.org/2000/svg">
<path d="M196 53.0167V16.9833C196 7.60368 188.365 0 178.946 0L17.054 0C7.63533 0 1.52588e-05 7.60368 1.52588e-05 16.9833V53.0167C1.52588e-05 62.3963 7.63533 70 17.054 70L178.946 70C188.365 70 196 62.3963 196 53.0167Z" fill="#F9CBFA"/>
<path d="M17.1168 8.375H178.008C182.838 8.375 186.75 12.2758 186.75 17.084V52.916C186.75 57.7242 182.838 61.625 178.008 61.625H17.1168C12.2871 61.625 8.375 57.7242 8.375 52.916V17.084C8.375 12.2758 12.2871 8.375 17.1168 8.375Z" fill="#FFFDFA" stroke="#010107"/>
<path d="M50.6881 45.125H50.1081V42.125H35.6081V45.125H35.0281V38.625H36.8481L39.5281 28.125H48.8681V38.625H50.6881V45.125ZM48.2881 38.625V31.625H39.2281L37.4281 38.625H48.2881ZM53.6028 24.005C53.9228 24.3117 54.0828 24.6917 54.0828 25.145C54.0828 25.585 53.9228 25.965 53.6028 26.285C53.2961 26.5917 52.9228 26.745 52.4828 26.745C52.0428 26.745 51.6628 26.5917 51.3428 26.285C51.0361 25.965 50.8828 25.585 50.8828 25.145C50.8828 24.6917 51.0361 24.3117 51.3428 24.005C51.6628 23.685 52.0428 23.525 52.4828 23.525C52.9228 23.525 53.2961 23.685 53.6028 24.005ZM52.1828 28.125H52.7628V42.125H52.1828V28.125ZM67.5059 35.045C68.0393 35.2317 68.4259 35.4583 68.6659 35.725C68.9059 35.9917 69.0259 36.345 69.0259 36.785C69.0259 37.5583 68.7926 38.385 68.3259 39.265C67.8726 40.1317 67.1326 40.8717 66.1059 41.485C65.0793 42.0983 63.7726 42.405 62.1859 42.405H61.6259C60.4926 42.405 59.4059 42.1783 58.3659 41.725C57.3259 41.2583 56.4326 40.6117 55.6859 39.785C54.9526 38.945 54.4526 37.9917 54.1859 36.925L55.0459 36.705C55.8326 37.3183 56.7859 37.8383 57.9059 38.265C59.0259 38.6917 60.2126 38.905 61.4659 38.905H62.4659C63.2126 38.905 64.0526 38.8183 64.9859 38.645C65.9326 38.4717 66.7393 38.2183 67.4059 37.885C68.0859 37.5517 68.4259 37.1517 68.4259 36.685C68.4259 36.2983 68.1926 35.9917 67.7259 35.765C67.2593 35.525 66.6659 35.405 65.9459 35.405H57.4059V34.825H65.5259C66.2459 34.825 66.8326 34.7117 67.2859 34.485C67.7526 34.245 67.9859 33.925 67.9859 33.525C67.9859 33.0717 67.6793 32.6783 67.0659 32.345C66.4659 32.0117 65.7326 31.7583 64.8659 31.585C63.9993 31.4117 63.1993 31.325 62.4659 31.325H61.5259C60.2326 31.325 59.0926 31.4717 58.1059 31.765C57.1326 32.045 56.2659 32.485 55.5059 33.085L54.6459 32.885C55.1926 31.3117 56.0793 30.0783 57.3059 29.185C58.5326 28.2783 59.9993 27.825 61.7059 27.825C63.0926 27.825 64.3059 28.1117 65.3459 28.685C66.3859 29.245 67.1793 29.9517 67.7259 30.805C68.2859 31.6583 68.5659 32.4917 68.5659 33.305C68.5659 33.7583 68.4726 34.1183 68.2859 34.385C68.1126 34.6517 67.8526 34.8717 67.5059 35.045ZM83.618 42.125H83.038V36.865H70.798V42.125H70.218V28.125H70.798V33.385H83.038V28.125H83.618V42.125ZM91.278 28.125H94.958L101.518 42.125H100.878L98.538 37.125H90.598L88.198 42.125H84.518L91.278 28.125ZM94.618 28.805L90.878 36.545H98.258L94.618 28.805ZM106.103 42.125V31.625H99.4226V28.125H113.383V31.625H106.683V42.125H106.103ZM129.038 28.125V42.125H128.438V29.825L117.878 42.125H114.378V28.125H114.958V40.425L125.538 28.125H129.038ZM130.248 35.145C130.248 33.8117 130.568 32.5917 131.208 31.485C131.861 30.365 132.761 29.4783 133.908 28.825C135.054 28.1717 136.334 27.845 137.748 27.845H138.508C139.694 27.845 140.794 28.085 141.808 28.565C142.821 29.0317 143.674 29.685 144.368 30.525C145.061 31.365 145.534 32.325 145.788 33.405L144.868 33.585C144.321 32.9183 143.488 32.3783 142.368 31.965C141.248 31.5517 140.014 31.345 138.668 31.345H137.588C136.361 31.345 135.228 31.5183 134.188 31.865C133.148 32.1983 132.314 32.6583 131.688 33.245C131.074 33.8183 130.768 34.4517 130.768 35.145C130.768 35.825 131.074 36.4583 131.688 37.045C132.314 37.6183 133.148 38.0783 134.188 38.425C135.228 38.7583 136.361 38.925 137.588 38.925H138.668C140.014 38.925 141.248 38.7183 142.368 38.305C143.488 37.8917 144.321 37.3517 144.868 36.685L145.788 36.865C145.521 37.9317 145.048 38.885 144.368 39.725C143.688 40.565 142.841 41.225 141.828 41.705C140.814 42.185 139.708 42.425 138.508 42.425H137.748C136.334 42.425 135.054 42.0983 133.908 41.445C132.774 40.7917 131.881 39.9117 131.228 38.805C130.574 37.685 130.248 36.465 130.248 35.145ZM159.415 35.925C159.495 36.2583 159.535 36.7583 159.535 37.425C159.535 38.625 159.349 39.565 158.975 40.245C158.615 40.925 158.049 41.4117 157.275 41.705C156.502 41.9983 155.469 42.145 154.175 42.145H146.995V28.145H147.575V34.025H156.395C157.049 34.025 157.675 34.205 158.275 34.565C158.889 34.9117 159.269 35.365 159.415 35.925ZM158.955 36.725C158.955 36.0717 158.702 35.5583 158.195 35.185C157.702 34.7983 157.102 34.605 156.395 34.605H147.575V38.645H155.915C156.675 38.645 157.369 38.5183 157.995 38.265C158.635 38.0117 158.955 37.4983 158.955 36.725Z" fill="black"/>
</svg>
