<svg width="325" height="92" viewBox="0 0 325 92" fill="none" xmlns="http://www.w3.org/2000/svg">
<path d="M17.2597 69.07H15.2297V20.07H62.1997V69.07H60.0997V32.32H17.2597V69.07ZM119.108 20V69H117.008V25.95L80.048 69H67.798V20H69.828V63.05L106.858 20H119.108ZM168.911 44.22C170.778 44.8733 172.131 45.6667 172.971 46.6C173.811 47.5333 174.231 48.77 174.231 50.31C174.231 53.0167 173.415 55.91 171.781 58.99C170.195 62.0233 167.605 64.6133 164.011 66.76C160.418 68.9067 155.845 69.98 150.291 69.98H148.331C144.365 69.98 140.561 69.1867 136.921 67.6C133.281 65.9667 130.155 63.7033 127.541 60.81C124.975 57.87 123.225 54.5333 122.291 50.8L125.301 50.03C128.055 52.1767 131.391 53.9967 135.311 55.49C139.231 56.9833 143.385 57.73 147.771 57.73H151.271C153.885 57.73 156.825 57.4267 160.091 56.82C163.405 56.2133 166.228 55.3267 168.561 54.16C170.941 52.9933 172.131 51.5933 172.131 49.96C172.131 48.6067 171.315 47.5333 169.681 46.74C168.048 45.9 165.971 45.48 163.451 45.48H133.561V43.45H161.981C164.501 43.45 166.555 43.0533 168.141 42.26C169.775 41.42 170.591 40.3 170.591 38.9C170.591 37.3133 169.518 35.9367 167.371 34.77C165.271 33.6033 162.705 32.7167 159.671 32.11C156.638 31.5033 153.838 31.2 151.271 31.2H147.981C143.455 31.2 139.465 31.7133 136.011 32.74C132.605 33.72 129.571 35.26 126.911 37.36L123.901 36.66C125.815 31.1533 128.918 26.8367 133.211 23.71C137.505 20.5367 142.638 18.95 148.611 18.95C153.465 18.95 157.711 19.9533 161.351 21.96C164.991 23.92 167.768 26.3933 169.681 29.38C171.641 32.3667 172.621 35.2833 172.621 38.13C172.621 39.7167 172.295 40.9767 171.641 41.91C171.035 42.8433 170.125 43.6133 168.911 44.22ZM228.994 79.5H226.964V69H176.214V79.5H174.184V56.75H180.554L189.934 20H222.624V56.75H228.994V79.5ZM220.594 56.75V32.25H188.884L182.584 56.75H220.594ZM253.686 20H266.566L289.526 69H287.286L279.096 51.5H251.306L242.906 69H230.026L253.686 20ZM265.376 22.38L252.286 49.47H278.116L265.376 22.38ZM299.63 20.07H301.66V55.49H299.63V20.07ZM304.25 68.58C303.27 69.56 302.057 70.05 300.61 70.05C299.21 70.05 297.997 69.56 296.97 68.58C295.99 67.5533 295.5 66.34 295.5 64.94C295.5 63.54 295.99 62.35 296.97 61.37C297.997 60.3433 299.21 59.83 300.61 59.83C302.057 59.83 303.27 60.3433 304.25 61.37C305.23 62.35 305.72 63.54 305.72 64.94C305.72 66.34 305.23 67.5533 304.25 68.58Z" fill="#F9CB2A"/>
</svg>
