<svg width="150" height="150" viewBox="0 0 150 150" fill="none" xmlns="http://www.w3.org/2000/svg">
<g clip-path="url(#clip0_13_179)">
<path d="M75.0002 149.635C116.22 149.635 149.635 116.22 149.635 75C149.635 33.7803 116.22 0.365112 75.0002 0.365112C33.7804 0.365112 0.365234 33.7803 0.365234 75C0.365234 116.22 33.7804 149.635 75.0002 149.635Z" fill="#FFFDFA" stroke="black" stroke-miterlimit="10"/>
<path d="M75 75L133.126 41.4427C127.015 30.8557 118.451 22.5613 108.565 16.8662L75 75Z" fill="#F9CB2A"/>
<path d="M75 75.0001L108.565 16.8663C98.3718 10.996 86.7699 7.88557 75 7.87097V75.0001Z" fill="#F9CBFA"/>
<path d="M16.8664 41.4354C10.9961 51.6282 7.8857 63.2301 7.87109 75H75.0002L16.8664 41.4354Z" fill="#E173AD"/>
<path d="M75 75V142.129C86.4048 142.136 97.9702 139.245 108.557 133.126L75 75Z" fill="#F9CB2A"/>
<path d="M108.557 133.126C119.144 127.015 127.439 118.451 133.134 108.565L75 75L108.557 133.126Z" fill="#F9CBFA"/>
<path d="M75.0001 7.87819C63.5953 7.87089 52.0299 10.7622 41.4429 16.8808L75.0001 75.0073V7.87819Z" fill="#567CBB"/>
<path d="M75 75H142.129C142.136 63.5952 139.245 52.0298 133.126 41.4427L75 75Z" fill="#E173AD"/>
<path d="M75 75L133.134 108.565C139.004 98.3718 142.114 86.7699 142.129 75H75Z" fill="#567CBB"/>
<path d="M75.0002 75H7.87843C7.87113 86.4048 10.7625 97.9702 16.8811 108.557L75.0075 75H75.0002Z" fill="#F9CBFA"/>
<path d="M75 75L41.4427 16.8735C30.8557 22.9848 22.5613 31.5494 16.8662 41.4355L75 75Z" fill="#F9CB2A"/>
<path d="M16.8735 108.557C22.9848 119.144 31.5494 127.439 41.4355 133.134L75 75L16.8735 108.557Z" fill="#567CBB"/>
<path d="M75.0001 75L41.4355 133.134C51.6283 139.004 63.2302 142.114 75.0001 142.129V75Z" fill="#E173AD"/>
<path d="M75 7.87817V141.895" stroke="black" stroke-miterlimit="10"/>
<path d="M41.4937 16.8517L108.506 132.922" stroke="black" stroke-miterlimit="10"/>
<path d="M16.9683 41.3844L133.031 108.389" stroke="black" stroke-miterlimit="10"/>
<path d="M7.98779 74.8832H142.012" stroke="black" stroke-miterlimit="10"/>
<path d="M16.9683 108.389L133.031 41.3844" stroke="black" stroke-miterlimit="10"/>
<path d="M41.4937 132.922L108.506 16.8517" stroke="black" stroke-miterlimit="10"/>
<path d="M74.9998 142.1C112.058 142.1 142.1 112.058 142.1 75C142.1 37.9418 112.058 7.90015 74.9998 7.90015C37.9415 7.90015 7.8999 37.9418 7.8999 75C7.8999 112.058 37.9415 142.1 74.9998 142.1Z" stroke="black" stroke-miterlimit="10"/>
</g>
<defs>
<clipPath id="clip0_13_179">
<rect width="150" height="150" fill="white"/>
</clipPath>
</defs>
</svg>
