<svg width="235" height="92" viewBox="0 0 235 92" fill="none" xmlns="http://www.w3.org/2000/svg">
<path d="M11.9289 20H37.0589C42.9389 20 47.2089 20.63 49.8689 21.89C52.5756 23.15 54.2322 24.8067 54.8389 26.86C55.4922 28.9133 55.8189 31.8767 55.8189 35.75V38.97C55.8189 40.79 55.3056 42.4233 54.2789 43.87C53.2989 45.3167 51.9689 46.4367 50.2889 47.23C48.6089 48.0233 46.7889 48.42 44.8289 48.42H14.0289V69H11.9289V20ZM44.8289 46.39C47.1622 46.39 49.2389 45.76 51.0589 44.5C52.8789 43.24 53.7889 41.4667 53.7889 39.18C53.7889 36.7533 52.7856 35.0033 50.7789 33.93C48.7722 32.81 46.2522 32.25 43.2189 32.25H14.0289V46.39H44.8289ZM57.9457 20.07H60.3957L78.3157 48.28L95.6057 20H109.186L79.2957 69H65.5757L77.0557 50.24L57.9457 20.07ZM105.343 44.57C105.343 39.9033 106.463 35.6333 108.703 31.76C110.99 27.84 114.14 24.7367 118.153 22.45C122.167 20.1633 126.647 19.02 131.593 19.02H134.253C138.407 19.02 142.257 19.86 145.803 21.54C149.35 23.1733 152.337 25.46 154.763 28.4C157.19 31.34 158.847 34.7 159.733 38.48L156.513 39.11C154.6 36.7767 151.683 34.8867 147.763 33.44C143.843 31.9933 139.527 31.27 134.813 31.27H131.033C126.74 31.27 122.773 31.8767 119.133 33.09C115.493 34.2567 112.577 35.8667 110.383 37.92C108.237 39.9267 107.163 42.1433 107.163 44.57C107.163 46.95 108.237 49.1667 110.383 51.22C112.577 53.2267 115.493 54.8367 119.133 56.05C122.773 57.2167 126.74 57.8 131.033 57.8H134.813C139.527 57.8 143.843 57.0767 147.763 55.63C151.683 54.1833 154.6 52.2933 156.513 49.96L159.733 50.59C158.8 54.3233 157.143 57.66 154.763 60.6C152.383 63.54 149.42 65.85 145.873 67.53C142.327 69.21 138.453 70.05 134.253 70.05H131.593C126.647 70.05 122.167 68.9067 118.153 66.62C114.187 64.3333 111.06 61.2533 108.773 57.38C106.487 53.46 105.343 49.19 105.343 44.57ZM210.86 69H208.83V50.59H165.99V69H163.96V20H165.99V38.41H208.83V20H210.86V69ZM223.18 5.58C224.3 6.65333 224.86 7.98333 224.86 9.57C224.86 11.11 224.3 12.44 223.18 13.56C222.107 14.6333 220.8 15.17 219.26 15.17C217.72 15.17 216.39 14.6333 215.27 13.56C214.197 12.44 213.66 11.11 213.66 9.57C213.66 7.98333 214.197 6.65333 215.27 5.58C216.39 4.46 217.72 3.9 219.26 3.9C220.8 3.9 222.107 4.46 223.18 5.58ZM218.21 20H220.24V69H218.21V20Z" fill="#F9CB2A"/>
</svg>

