<svg width="274" height="184" viewBox="0 0 274 184" fill="none" xmlns="http://www.w3.org/2000/svg">
<path d="M79.5231 58.26C81.083 58.26 82.523 58.66 83.843 59.46C85.203 60.26 86.2631 61.32 87.0231 62.64C87.823 64 88.223 65.48 88.223 67.08C88.223 68.68 87.803 70.14 86.9631 71.46C86.123 72.82 85.003 73.9 83.603 74.7C82.203 75.5 80.703 75.9 79.103 75.9H77.5431C75.823 75.9 74.483 75.44 73.523 74.52C72.563 73.6 72.083 72.54 72.083 71.34C72.083 70.18 72.503 69.18 73.343 68.34C74.223 67.54 75.263 67.14 76.4631 67.14C77.663 67.14 78.683 67.56 79.5231 68.4C80.403 69.24 80.843 70.28 80.843 71.52C80.843 72.48 80.563 73.34 80.003 74.1C81.803 73.94 83.323 73.18 84.563 71.82C85.8431 70.5 86.4831 68.92 86.4831 67.08C86.4831 65.12 85.783 63.44 84.383 62.04C83.023 60.68 81.363 60 79.403 60H33.023V18H34.763V49.5H55.403V18H57.143V49.5H77.783V18H79.5231V58.26ZM110.041 17.16C114.201 17.16 117.981 18.14 121.381 20.1C124.821 22.06 127.521 24.72 129.481 28.08C131.481 31.4 132.481 35.04 132.481 39C132.481 43 131.481 46.68 129.481 50.04C127.521 53.36 124.821 56 121.381 57.96C117.981 59.92 114.201 60.9 110.041 60.9H107.761C103.561 60.9 99.7405 59.92 96.3005 57.96C92.8605 56 90.1605 53.36 88.2005 50.04C86.2405 46.68 85.2605 43 85.2605 39C85.2605 35 86.2405 31.34 88.2005 28.02C90.1605 24.7 92.8605 22.06 96.3005 20.1C99.7405 18.14 103.561 17.16 107.761 17.16H110.041ZM110.521 50.4C114.201 50.4 117.601 49.9 120.721 48.9C123.841 47.86 126.321 46.48 128.161 44.76C130.001 43 130.921 41.08 130.921 39C130.921 36.96 130.001 35.08 128.161 33.36C126.321 31.6 123.841 30.22 120.721 29.22C117.601 28.18 114.201 27.66 110.521 27.66H107.281C103.601 27.66 100.181 28.18 97.0205 29.22C93.9005 30.22 91.4205 31.6 89.5805 33.36C87.7405 35.08 86.8205 36.96 86.8205 39C86.8205 41.08 87.7405 43 89.5805 44.76C91.4205 46.48 93.9005 47.86 97.0205 48.9C100.181 49.9 103.601 50.4 107.281 50.4H110.521ZM152.829 60.06H151.089V18.06H191.349V60.06H189.549V28.56H152.829V60.06ZM219.728 17.16C223.888 17.16 227.668 18.14 231.068 20.1C234.508 22.06 237.208 24.72 239.168 28.08C241.168 31.4 242.168 35.04 242.168 39C242.168 43 241.168 46.68 239.168 50.04C237.208 53.36 234.508 56 231.068 57.96C227.668 59.92 223.888 60.9 219.728 60.9H217.448C213.248 60.9 209.428 59.92 205.988 57.96C202.548 56 199.848 53.36 197.888 50.04C195.928 46.68 194.948 43 194.948 39C194.948 35 195.928 31.34 197.888 28.02C199.848 24.7 202.548 22.06 205.988 20.1C209.428 18.14 213.248 17.16 217.448 17.16H219.728ZM220.208 50.4C223.888 50.4 227.288 49.9 230.408 48.9C233.528 47.86 236.008 46.48 237.848 44.76C239.688 43 240.608 41.08 240.608 39C240.608 36.96 239.688 35.08 237.848 33.36C236.008 31.6 233.528 30.22 230.408 29.22C227.288 28.18 223.888 27.66 220.208 27.66H216.968C213.288 27.66 209.868 28.18 206.708 29.22C203.588 30.22 201.108 31.6 199.268 33.36C197.428 35.08 196.508 36.96 196.508 39C196.508 41.08 197.428 43 199.268 44.76C201.108 46.48 203.588 47.86 206.708 48.9C209.868 49.9 213.288 50.4 216.968 50.4H220.208ZM31.5875 98H53.1275C58.1675 98 61.8275 98.54 64.1075 99.62C66.4275 100.7 67.8475 102.12 68.3675 103.88C68.9275 105.64 69.2075 108.18 69.2075 111.5V114.26C69.2075 115.82 68.7675 117.22 67.8875 118.46C67.0475 119.7 65.9075 120.66 64.4675 121.34C63.0275 122.02 61.4675 122.36 59.7875 122.36H33.3875V140H31.5875V98ZM59.7875 120.62C61.7875 120.62 63.5675 120.08 65.1275 119C66.6875 117.92 67.4675 116.4 67.4675 114.44C67.4675 112.36 66.6075 110.86 64.8875 109.94C63.1675 108.98 61.0075 108.5 58.4075 108.5H33.3875V120.62H59.7875ZM71.0305 98.06H73.1305L88.4905 122.24L103.31 98H114.95L89.3305 140H77.5705L87.4105 123.92L71.0305 98.06ZM111.657 119.06C111.657 115.06 112.617 111.4 114.537 108.08C116.497 104.72 119.197 102.06 122.637 100.1C126.077 98.14 129.917 97.16 134.157 97.16H136.437C139.997 97.16 143.297 97.88 146.337 99.32C149.377 100.72 151.937 102.68 154.017 105.2C156.097 107.72 157.517 110.6 158.277 113.84L155.517 114.38C153.877 112.38 151.377 110.76 148.017 109.52C144.657 108.28 140.957 107.66 136.917 107.66H133.677C129.997 107.66 126.597 108.18 123.477 109.22C120.357 110.22 117.857 111.6 115.977 113.36C114.137 115.08 113.217 116.98 113.217 119.06C113.217 121.1 114.137 123 115.977 124.76C117.857 126.48 120.357 127.86 123.477 128.9C126.597 129.9 129.997 130.4 133.677 130.4H136.917C140.957 130.4 144.657 129.78 148.017 128.54C151.377 127.3 153.877 125.68 155.517 123.68L158.277 124.22C157.477 127.42 156.057 130.28 154.017 132.8C151.977 135.32 149.437 137.3 146.397 138.74C143.357 140.18 140.037 140.9 136.437 140.9H134.157C129.917 140.9 126.077 139.92 122.637 137.96C119.237 136 116.557 133.36 114.597 130.04C112.637 126.68 111.657 123.02 111.657 119.06ZM202.1 140H200.36V124.22H163.64V140H161.9V98H163.64V113.78H200.36V98H202.1V140ZM212.66 85.64C213.62 86.56 214.1 87.7 214.1 89.06C214.1 90.38 213.62 91.52 212.66 92.48C211.74 93.4 210.62 93.86 209.3 93.86C207.98 93.86 206.84 93.4 205.88 92.48C204.96 91.52 204.5 90.38 204.5 89.06C204.5 87.7 204.96 86.56 205.88 85.64C206.84 84.68 207.98 84.2 209.3 84.2C210.62 84.2 211.74 84.68 212.66 85.64ZM208.4 98H210.14V140H208.4V98ZM230.009 97.22C232.489 97.22 234.689 97.8 236.609 98.96C238.569 100.08 240.089 101.62 241.169 103.58C242.289 105.54 242.849 107.7 242.849 110.06V112.16C242.849 115.28 241.549 117.36 238.949 118.4C236.389 119.4 233.189 119.9 229.349 119.9V129.08H227.609V118.16H231.209C233.929 118.16 236.229 117.74 238.109 116.9C239.989 116.02 240.929 114.76 240.929 113.12C240.929 111.52 239.969 110.22 238.049 109.22C236.169 108.22 233.589 107.72 230.309 107.72H228.389C225.269 107.72 222.889 108.04 221.249 108.68C219.649 109.28 218.329 110.3 217.289 111.74L215.549 111.32C215.549 108.84 216.089 106.54 217.169 104.42C218.249 102.26 219.869 100.52 222.029 99.2C224.229 97.88 226.889 97.22 230.009 97.22ZM228.449 132.2C229.649 132.2 230.669 132.64 231.509 133.52C232.389 134.36 232.829 135.38 232.829 136.58C232.829 137.82 232.389 138.86 231.509 139.7C230.669 140.54 229.649 140.96 228.449 140.96C227.249 140.96 226.209 140.54 225.329 139.7C224.489 138.86 224.069 137.82 224.069 136.58C224.069 135.38 224.489 134.36 225.329 133.52C226.209 132.64 227.249 132.2 228.449 132.2Z" fill="#F9CBFA"/>
</svg>
